# xmcd
# 
# Track frame offsets:
#     150
#     15478
#     28808
#     54571
#     67185
#     88370
#     107926
#     121794
#     139998
#     155371
# 
# Disc length: 2410
# 
# Revision: 0
# Processed by: cddbd v1.5.2PL0 Copyright (c) Steve Scherf et al.
# Submitted via: fre:ac v1.0.17
# 
DISCID=8c09680a
DTITLE=SKY DOG BLUES BAND - First Album
DYEAR=1976
DGENRE=Blues
TTITLE0=ロールスロイスに乗って
TTITLE1=５年間も
TTITLE2=いやんなった
TTITLE3=午前４時のブルース
TTITLE4=大人
TTITLE5=てやんでえ！
TTITLE6=今夜も飲みあかそうぜ
TTITLE7=果てしなき旅(旅する連太)
TTITLE8=金を貸してくれ
TTITLE9=俺が今日まで
EXTD=
EXTT0=
EXTT1=
EXTT2=
EXTT3=
EXTT4=
EXTT5=
EXTT6=
EXTT7=
EXTT8=
EXTT9=
PLAYORDER=
